<svg width="385" height="713" viewBox="0 0 385 713" fill="none" xmlns="http://www.w3.org/2000/svg">
<g clip-path="url(#clip0_6_21)">
<rect x="1" y="1" width="383" height="711" rx="30" fill="black"/>
<g filter="url(#filter0_dd_6_21)">
<rect x="35" y="566" width="183" height="50" rx="5" fill="url(#paint0_linear_6_21)"/>
</g>
<path d="M74.975 595.325C74.7417 595.558 74.3917 595.783 73.925 596C73.475 596.217 72.9667 596.417 72.4 596.6C71.8333 596.783 71.25 596.925 70.65 597.025C70.05 597.142 69.4833 597.2 68.95 597.2C67.4833 597.2 66.1583 596.975 64.975 596.525C63.8083 596.075 62.8 595.458 61.95 594.675C61.1167 593.875 60.475 592.933 60.025 591.85C59.5917 590.767 59.375 589.592 59.375 588.325C59.375 586.742 59.625 585.35 60.125 584.15C60.625 582.933 61.3083 581.917 62.175 581.1C63.0417 580.267 64.0333 579.642 65.15 579.225C66.2833 578.808 67.475 578.6 68.725 578.6C69.825 578.6 70.8417 578.725 71.775 578.975C72.725 579.225 73.5333 579.542 74.2 579.925L73.25 582.625C72.9333 582.442 72.525 582.267 72.025 582.1C71.525 581.917 71.0167 581.775 70.5 581.675C70 581.575 69.5333 581.525 69.1 581.525C68.05 581.525 67.1083 581.675 66.275 581.975C65.4583 582.258 64.7583 582.683 64.175 583.25C63.5917 583.817 63.1417 584.508 62.825 585.325C62.525 586.125 62.375 587.042 62.375 588.075C62.375 589.008 62.5333 589.858 62.85 590.625C63.1833 591.392 63.6417 592.05 64.225 592.6C64.825 593.15 65.525 593.575 66.325 593.875C67.1417 594.158 68.0417 594.3 69.025 594.3C69.5917 594.3 70.1417 594.25 70.675 594.15C71.2083 594.05 71.6583 593.892 72.025 593.675V590.65H68.625V587.85H74.975V595.325ZM83.8715 597.275C82.6215 597.275 81.5548 597.033 80.6715 596.55C79.7882 596.067 79.1132 595.4 78.6465 594.55C78.1798 593.683 77.9465 592.708 77.9465 591.625C77.9465 590.558 78.2132 589.6 78.7465 588.75C79.2798 587.9 79.9965 587.225 80.8965 586.725C81.8132 586.208 82.8215 585.95 83.9215 585.95C85.3715 585.95 86.5632 586.375 87.4965 587.225C88.4465 588.058 89.0798 589.242 89.3965 590.775L80.8715 593.65L80.2215 592.075L86.8715 589.7L86.2965 590.025C86.1132 589.525 85.8132 589.092 85.3965 588.725C84.9965 588.358 84.4298 588.175 83.6965 588.175C83.1132 588.175 82.5965 588.317 82.1465 588.6C81.6965 588.867 81.3382 589.25 81.0715 589.75C80.8215 590.233 80.6965 590.808 80.6965 591.475C80.6965 592.158 80.8382 592.758 81.1215 593.275C81.4048 593.792 81.7882 594.192 82.2715 594.475C82.7548 594.742 83.3048 594.875 83.9215 594.875C84.3548 594.875 84.7715 594.8 85.1715 594.65C85.5715 594.5 85.9465 594.3 86.2965 594.05L87.5715 596.125C87.0215 596.475 86.4132 596.758 85.7465 596.975C85.0965 597.175 84.4715 597.275 83.8715 597.275ZM93.1516 581.775H95.9766V586.425H98.7266V588.625H95.9766V597H93.1516V588.625H91.3516V586.425H93.1516V581.775ZM119.611 582.5C118.961 582.167 118.269 581.883 117.536 581.65C116.802 581.4 116.102 581.275 115.436 581.275C114.536 581.275 113.819 581.475 113.286 581.875C112.769 582.275 112.511 582.825 112.511 583.525C112.511 584.025 112.694 584.467 113.061 584.85C113.427 585.217 113.894 585.542 114.461 585.825C115.027 586.092 115.627 586.35 116.261 586.6C116.811 586.8 117.352 587.042 117.886 587.325C118.436 587.592 118.927 587.925 119.361 588.325C119.794 588.725 120.136 589.225 120.386 589.825C120.652 590.408 120.786 591.133 120.786 592C120.786 592.95 120.544 593.825 120.061 594.625C119.577 595.408 118.886 596.033 117.986 596.5C117.086 596.967 115.986 597.2 114.686 597.2C113.936 597.2 113.194 597.117 112.461 596.95C111.744 596.783 111.061 596.558 110.411 596.275C109.761 595.975 109.161 595.642 108.611 595.275L109.911 593C110.311 593.3 110.769 593.575 111.286 593.825C111.802 594.075 112.336 594.275 112.886 594.425C113.436 594.558 113.952 594.625 114.436 594.625C114.952 594.625 115.461 594.542 115.961 594.375C116.477 594.208 116.902 593.933 117.236 593.55C117.586 593.167 117.761 592.658 117.761 592.025C117.761 591.508 117.611 591.067 117.311 590.7C117.011 590.333 116.619 590.017 116.136 589.75C115.669 589.467 115.152 589.217 114.586 589C114.019 588.783 113.436 588.542 112.836 588.275C112.252 588.008 111.711 587.683 111.211 587.3C110.711 586.9 110.302 586.417 109.986 585.85C109.669 585.283 109.511 584.583 109.511 583.75C109.511 582.75 109.744 581.883 110.211 581.15C110.677 580.417 111.319 579.833 112.136 579.4C112.969 578.967 113.927 578.733 115.011 578.7C116.294 578.7 117.386 578.858 118.286 579.175C119.202 579.475 120.011 579.842 120.711 580.275L119.611 582.5ZM125.036 581.775H127.861V586.425H130.611V588.625H127.861V597H125.036V588.625H123.236V586.425H125.036V581.775ZM137.813 597.275C136.813 597.275 135.904 597.067 135.088 596.65C134.288 596.233 133.654 595.617 133.188 594.8C132.721 593.967 132.488 592.942 132.488 591.725C132.488 590.525 132.729 589.5 133.213 588.65C133.713 587.783 134.363 587.117 135.163 586.65C135.979 586.183 136.863 585.95 137.813 585.95C138.829 585.95 139.646 586.15 140.263 586.55C140.896 586.95 141.388 587.425 141.738 587.975L141.588 588.375L141.863 586.425H144.438V597H141.638V594.425L141.913 595.1C141.846 595.2 141.713 595.367 141.513 595.6C141.313 595.817 141.038 596.058 140.688 596.325C140.338 596.592 139.921 596.817 139.438 597C138.971 597.183 138.429 597.275 137.813 597.275ZM138.588 594.975C139.088 594.975 139.538 594.883 139.938 594.7C140.354 594.517 140.704 594.258 140.988 593.925C141.288 593.592 141.504 593.192 141.638 592.725V590.425C141.504 589.992 141.288 589.617 140.988 589.3C140.688 588.967 140.321 588.708 139.888 588.525C139.471 588.342 139.004 588.25 138.488 588.25C137.921 588.25 137.396 588.392 136.913 588.675C136.429 588.958 136.038 589.35 135.738 589.85C135.454 590.35 135.313 590.925 135.313 591.575C135.313 592.208 135.463 592.783 135.763 593.3C136.063 593.817 136.463 594.225 136.963 594.525C137.463 594.825 138.004 594.975 138.588 594.975ZM150.829 586.425L151.079 589.425L150.979 589C151.279 588.367 151.687 587.825 152.204 587.375C152.737 586.908 153.279 586.558 153.829 586.325C154.379 586.075 154.829 585.95 155.179 585.95L155.054 588.75C154.254 588.683 153.554 588.833 152.954 589.2C152.371 589.55 151.912 590.017 151.579 590.6C151.262 591.183 151.104 591.8 151.104 592.45V597H148.304V586.425H150.829ZM159.045 581.775H161.87V586.425H164.62V588.625H161.87V597H159.045V588.625H157.245V586.425H159.045V581.775ZM172.421 597.275C171.171 597.275 170.105 597.033 169.221 596.55C168.338 596.067 167.663 595.4 167.196 594.55C166.73 593.683 166.496 592.708 166.496 591.625C166.496 590.558 166.763 589.6 167.296 588.75C167.83 587.9 168.546 587.225 169.446 586.725C170.363 586.208 171.371 585.95 172.471 585.95C173.921 585.95 175.113 586.375 176.046 587.225C176.996 588.058 177.63 589.242 177.946 590.775L169.421 593.65L168.771 592.075L175.421 589.7L174.846 590.025C174.663 589.525 174.363 589.092 173.946 588.725C173.546 588.358 172.98 588.175 172.246 588.175C171.663 588.175 171.146 588.317 170.696 588.6C170.246 588.867 169.888 589.25 169.621 589.75C169.371 590.233 169.246 590.808 169.246 591.475C169.246 592.158 169.388 592.758 169.671 593.275C169.955 593.792 170.338 594.192 170.821 594.475C171.305 594.742 171.855 594.875 172.471 594.875C172.905 594.875 173.321 594.8 173.721 594.65C174.121 594.5 174.496 594.3 174.846 594.05L176.121 596.125C175.571 596.475 174.963 596.758 174.296 596.975C173.646 597.175 173.021 597.275 172.421 597.275ZM185.026 597.275C184.026 597.275 183.135 597.042 182.351 596.575C181.568 596.108 180.951 595.442 180.501 594.575C180.051 593.708 179.826 592.7 179.826 591.55C179.826 590.367 180.068 589.358 180.551 588.525C181.035 587.692 181.693 587.058 182.526 586.625C183.376 586.175 184.326 585.95 185.376 585.95C186.143 585.95 186.876 586.1 187.576 586.4C188.276 586.683 188.835 587.1 189.251 587.65L189.201 588.6V577.5H191.976V597H189.176V594.625L189.451 595.3C188.918 595.867 188.276 596.342 187.526 596.725C186.793 597.092 185.96 597.275 185.026 597.275ZM185.926 594.9C186.476 594.9 186.96 594.808 187.376 594.625C187.81 594.442 188.176 594.183 188.476 593.85C188.793 593.5 189.026 593.092 189.176 592.625V590.375C189.043 589.942 188.818 589.558 188.501 589.225C188.201 588.892 187.826 588.633 187.376 588.45C186.926 588.267 186.443 588.175 185.926 588.175C185.326 588.175 184.776 588.317 184.276 588.6C183.793 588.883 183.401 589.275 183.101 589.775C182.801 590.275 182.651 590.85 182.651 591.5C182.651 592.133 182.801 592.708 183.101 593.225C183.401 593.742 183.801 594.15 184.301 594.45C184.801 594.75 185.343 594.9 185.926 594.9Z" fill="white"/>
<path d="M36.375 488.925C36.375 487.658 36.6167 486.467 37.1 485.35C37.5833 484.233 38.25 483.242 39.1 482.375C39.95 481.508 40.9333 480.833 42.05 480.35C43.1833 479.85 44.3917 479.6 45.675 479.6C46.9417 479.6 48.1333 479.85 49.25 480.35C50.3833 480.833 51.375 481.508 52.225 482.375C53.0917 483.242 53.7667 484.233 54.25 485.35C54.75 486.467 55 487.658 55 488.925C55 490.208 54.75 491.408 54.25 492.525C53.7667 493.642 53.0917 494.633 52.225 495.5C51.375 496.35 50.3833 497.017 49.25 497.5C48.1333 497.967 46.9417 498.2 45.675 498.2C44.375 498.2 43.1667 497.967 42.05 497.5C40.9333 497.017 39.95 496.358 39.1 495.525C38.25 494.675 37.5833 493.692 37.1 492.575C36.6167 491.442 36.375 490.225 36.375 488.925ZM39.375 488.925C39.375 489.825 39.5333 490.667 39.85 491.45C40.1833 492.233 40.6417 492.925 41.225 493.525C41.8083 494.108 42.4833 494.567 43.25 494.9C44.0167 495.233 44.85 495.4 45.75 495.4C46.6167 495.4 47.425 495.233 48.175 494.9C48.9417 494.567 49.6083 494.108 50.175 493.525C50.7417 492.925 51.1833 492.233 51.5 491.45C51.8333 490.667 52 489.825 52 488.925C52 488.008 51.8333 487.158 51.5 486.375C51.1667 485.592 50.7167 484.9 50.15 484.3C49.5833 483.7 48.9167 483.233 48.15 482.9C47.3833 482.567 46.5583 482.4 45.675 482.4C44.7917 482.4 43.9667 482.567 43.2 482.9C42.4333 483.233 41.7583 483.7 41.175 484.3C40.6083 484.9 40.1667 485.6 39.85 486.4C39.5333 487.183 39.375 488.025 39.375 488.925ZM60.8367 487.425L61.0867 489.7L60.9867 489.4C61.3534 488.667 61.8951 488.083 62.6117 487.65C63.3451 487.2 64.2117 486.975 65.2117 486.975C66.2117 486.975 67.0367 487.267 67.6867 487.85C68.3367 488.433 68.6701 489.2 68.6867 490.15V498H65.8867V491.15C65.8701 490.617 65.7201 490.192 65.4367 489.875C65.1534 489.542 64.7034 489.367 64.0867 489.35C63.5201 489.35 63.0117 489.525 62.5617 489.875C62.1117 490.208 61.7534 490.675 61.4867 491.275C61.2367 491.858 61.1117 492.533 61.1117 493.3V498H58.3117V487.425H60.8367ZM72.5451 478.5H75.3451V498H72.5451V478.5ZM79.1857 487.425H81.9857V498H79.1857V487.425ZM79.0607 483.65C79.0607 483.217 79.2274 482.858 79.5607 482.575C79.9107 482.292 80.2857 482.15 80.6857 482.15C81.0857 482.15 81.4441 482.292 81.7607 482.575C82.0941 482.858 82.2607 483.217 82.2607 483.65C82.2607 484.083 82.0941 484.442 81.7607 484.725C81.4441 484.992 81.0857 485.125 80.6857 485.125C80.2857 485.125 79.9107 484.983 79.5607 484.7C79.2274 484.417 79.0607 484.067 79.0607 483.65ZM88.3514 487.425L88.6014 489.7L88.5014 489.4C88.868 488.667 89.4097 488.083 90.1264 487.65C90.8597 487.2 91.7264 486.975 92.7264 486.975C93.7264 486.975 94.5514 487.267 95.2014 487.85C95.8514 488.433 96.1847 489.2 96.2014 490.15V498H93.4014V491.15C93.3847 490.617 93.2347 490.192 92.9514 489.875C92.668 489.542 92.218 489.367 91.6014 489.35C91.0347 489.35 90.5264 489.525 90.0764 489.875C89.6264 490.208 89.268 490.675 89.0014 491.275C88.7514 491.858 88.6264 492.533 88.6264 493.3V498H85.8264V487.425H88.3514ZM105.11 498.275C103.86 498.275 102.793 498.033 101.91 497.55C101.026 497.067 100.351 496.4 99.8848 495.55C99.4181 494.683 99.1848 493.708 99.1848 492.625C99.1848 491.558 99.4514 490.6 99.9848 489.75C100.518 488.9 101.235 488.225 102.135 487.725C103.051 487.208 104.06 486.95 105.16 486.95C106.61 486.95 107.801 487.375 108.735 488.225C109.685 489.058 110.318 490.242 110.635 491.775L102.11 494.65L101.46 493.075L108.11 490.7L107.535 491.025C107.351 490.525 107.051 490.092 106.635 489.725C106.235 489.358 105.668 489.175 104.935 489.175C104.351 489.175 103.835 489.317 103.385 489.6C102.935 489.867 102.576 490.25 102.31 490.75C102.06 491.233 101.935 491.808 101.935 492.475C101.935 493.158 102.076 493.758 102.36 494.275C102.643 494.792 103.026 495.192 103.51 495.475C103.993 495.742 104.543 495.875 105.16 495.875C105.593 495.875 106.01 495.8 106.41 495.65C106.81 495.5 107.185 495.3 107.535 495.05L108.81 497.125C108.26 497.475 107.651 497.758 106.985 497.975C106.335 498.175 105.71 498.275 105.11 498.275ZM37.5 533V514.8H42.675C44.4917 514.8 46.0333 515.075 47.3 515.625C48.5667 516.158 49.5917 516.883 50.375 517.8C51.1583 518.7 51.725 519.708 52.075 520.825C52.4417 521.925 52.625 523.033 52.625 524.15C52.625 525.517 52.3833 526.742 51.9 527.825C51.4167 528.908 50.7583 529.842 49.925 530.625C49.0917 531.392 48.125 531.983 47.025 532.4C45.9417 532.8 44.7833 533 43.55 533H37.5ZM40.425 530.2H43.025C43.9917 530.2 44.875 530.067 45.675 529.8C46.475 529.517 47.1667 529.117 47.75 528.6C48.35 528.067 48.8083 527.408 49.125 526.625C49.4583 525.842 49.625 524.95 49.625 523.95C49.625 522.817 49.4333 521.85 49.05 521.05C48.6833 520.233 48.1917 519.575 47.575 519.075C46.975 518.558 46.3167 518.183 45.6 517.95C44.8833 517.717 44.175 517.6 43.475 517.6H40.425V530.2ZM55.9436 522.425H58.7436V533H55.9436V522.425ZM55.8186 518.65C55.8186 518.217 55.9852 517.858 56.3186 517.575C56.6686 517.292 57.0436 517.15 57.4436 517.15C57.8436 517.15 58.2019 517.292 58.5186 517.575C58.8519 517.858 59.0186 518.217 59.0186 518.65C59.0186 519.083 58.8519 519.442 58.5186 519.725C58.2019 519.992 57.8436 520.125 57.4436 520.125C57.0436 520.125 56.6686 519.983 56.3186 519.7C55.9852 519.417 55.8186 519.067 55.8186 518.65ZM67.8592 538.275C66.9925 538.275 66.2508 538.175 65.6342 537.975C65.0175 537.775 64.4675 537.508 63.9842 537.175C63.5175 536.858 63.0758 536.525 62.6592 536.175L64.3092 534.25C64.7925 534.7 65.3008 535.075 65.8342 535.375C66.3842 535.675 67.0425 535.825 67.8092 535.825C68.4925 535.825 69.0842 535.708 69.5842 535.475C70.1008 535.242 70.5008 534.917 70.7842 534.5C71.0675 534.083 71.2175 533.583 71.2342 533V530.375L71.4092 530.9C71.1258 531.55 70.6092 532.108 69.8592 532.575C69.1092 533.042 68.1758 533.275 67.0592 533.275C66.0925 533.275 65.2008 533.033 64.3842 532.55C63.5675 532.05 62.9175 531.375 62.4342 530.525C61.9508 529.675 61.7092 528.717 61.7092 527.65C61.7092 526.55 61.9592 525.575 62.4592 524.725C62.9758 523.858 63.6508 523.183 64.4842 522.7C65.3342 522.2 66.2342 521.95 67.1842 521.95C68.1175 521.95 68.9425 522.117 69.6592 522.45C70.3925 522.783 70.9425 523.2 71.3092 523.7L71.1592 524.1L71.4592 522.425H74.0342V533.05C74.0342 534.033 73.7675 534.917 73.2342 535.7C72.7175 536.5 71.9925 537.125 71.0592 537.575C70.1425 538.042 69.0758 538.275 67.8592 538.275ZM64.5342 527.575C64.5342 528.208 64.6758 528.783 64.9592 529.3C65.2592 529.817 65.6592 530.225 66.1592 530.525C66.6758 530.825 67.2508 530.975 67.8842 530.975C68.4342 530.975 68.9258 530.883 69.3592 530.7C69.8092 530.517 70.1925 530.258 70.5092 529.925C70.8425 529.592 71.0842 529.2 71.2342 528.75V526.45C71.0842 526 70.8425 525.617 70.5092 525.3C70.1925 524.967 69.8092 524.708 69.3592 524.525C68.9258 524.342 68.4342 524.25 67.8842 524.25C67.2508 524.25 66.6758 524.392 66.1592 524.675C65.6592 524.958 65.2592 525.35 64.9592 525.85C64.6758 526.35 64.5342 526.925 64.5342 527.575ZM77.8918 522.425H80.6918V533H77.8918V522.425ZM77.7668 518.65C77.7668 518.217 77.9335 517.858 78.2668 517.575C78.6168 517.292 78.9918 517.15 79.3918 517.15C79.7918 517.15 80.1501 517.292 80.4668 517.575C80.8001 517.858 80.9668 518.217 80.9668 518.65C80.9668 519.083 80.8001 519.442 80.4668 519.725C80.1501 519.992 79.7918 520.125 79.3918 520.125C78.9918 520.125 78.6168 519.983 78.2668 519.7C77.9335 519.417 77.7668 519.067 77.7668 518.65ZM85.5324 517.775H88.3574V522.425H91.1074V524.625H88.3574V533H85.5324V524.625H83.7324V522.425H85.5324V517.775ZM98.3086 533.275C97.3086 533.275 96.4003 533.067 95.5836 532.65C94.7836 532.233 94.1503 531.617 93.6836 530.8C93.2169 529.967 92.9836 528.942 92.9836 527.725C92.9836 526.525 93.2253 525.5 93.7086 524.65C94.2086 523.783 94.8586 523.117 95.6586 522.65C96.4753 522.183 97.3586 521.95 98.3086 521.95C99.3253 521.95 100.142 522.15 100.759 522.55C101.392 522.95 101.884 523.425 102.234 523.975L102.084 524.375L102.359 522.425H104.934V533H102.134V530.425L102.409 531.1C102.342 531.2 102.209 531.367 102.009 531.6C101.809 531.817 101.534 532.058 101.184 532.325C100.834 532.592 100.417 532.817 99.9336 533C99.4669 533.183 98.9253 533.275 98.3086 533.275ZM99.0836 530.975C99.5836 530.975 100.034 530.883 100.434 530.7C100.85 530.517 101.2 530.258 101.484 529.925C101.784 529.592 102 529.192 102.134 528.725V526.425C102 525.992 101.784 525.617 101.484 525.3C101.184 524.967 100.817 524.708 100.384 524.525C99.9669 524.342 99.5003 524.25 98.9836 524.25C98.4169 524.25 97.8919 524.392 97.4086 524.675C96.9253 524.958 96.5336 525.35 96.2336 525.85C95.9503 526.35 95.8086 526.925 95.8086 527.575C95.8086 528.208 95.9586 528.783 96.2586 529.3C96.5586 529.817 96.9586 530.225 97.4586 530.525C97.9586 530.825 98.5003 530.975 99.0836 530.975ZM108.8 513.5H111.6V533H108.8V513.5ZM124.023 514.8H126.948V530.2H135.923V533H124.023V514.8ZM138.321 527.6C138.321 526.533 138.571 525.575 139.071 524.725C139.571 523.858 140.271 523.183 141.171 522.7C142.087 522.2 143.121 521.95 144.271 521.95C145.454 521.95 146.479 522.2 147.346 522.7C148.229 523.183 148.912 523.858 149.396 524.725C149.879 525.575 150.121 526.533 150.121 527.6C150.121 528.667 149.879 529.633 149.396 530.5C148.912 531.35 148.229 532.025 147.346 532.525C146.479 533.025 145.446 533.275 144.246 533.275C143.112 533.275 142.096 533.05 141.196 532.6C140.296 532.133 139.587 531.475 139.071 530.625C138.571 529.775 138.321 528.767 138.321 527.6ZM141.146 527.625C141.146 528.242 141.279 528.808 141.546 529.325C141.812 529.825 142.179 530.225 142.646 530.525C143.112 530.825 143.629 530.975 144.196 530.975C144.812 530.975 145.346 530.825 145.796 530.525C146.262 530.225 146.621 529.825 146.871 529.325C147.137 528.808 147.271 528.242 147.271 527.625C147.271 526.992 147.137 526.425 146.871 525.925C146.621 525.408 146.262 525 145.796 524.7C145.346 524.4 144.812 524.25 144.196 524.25C143.612 524.25 143.087 524.408 142.621 524.725C142.171 525.025 141.812 525.425 141.546 525.925C141.279 526.425 141.146 526.992 141.146 527.625ZM157.513 533.275C156.513 533.275 155.604 533.067 154.788 532.65C153.988 532.233 153.354 531.617 152.888 530.8C152.421 529.967 152.188 528.942 152.188 527.725C152.188 526.525 152.429 525.5 152.913 524.65C153.413 523.783 154.063 523.117 154.863 522.65C155.679 522.183 156.563 521.95 157.513 521.95C158.529 521.95 159.346 522.15 159.963 522.55C160.596 522.95 161.088 523.425 161.438 523.975L161.288 524.375L161.563 522.425H164.138V533H161.338V530.425L161.613 531.1C161.546 531.2 161.413 531.367 161.213 531.6C161.013 531.817 160.738 532.058 160.388 532.325C160.038 532.592 159.621 532.817 159.138 533C158.671 533.183 158.129 533.275 157.513 533.275ZM158.288 530.975C158.788 530.975 159.238 530.883 159.638 530.7C160.054 530.517 160.404 530.258 160.688 529.925C160.988 529.592 161.204 529.192 161.338 528.725V526.425C161.204 525.992 160.988 525.617 160.688 525.3C160.388 524.967 160.021 524.708 159.588 524.525C159.171 524.342 158.704 524.25 158.188 524.25C157.621 524.25 157.096 524.392 156.613 524.675C156.129 524.958 155.738 525.35 155.438 525.85C155.154 526.35 155.013 526.925 155.013 527.575C155.013 528.208 155.163 528.783 155.463 529.3C155.763 529.817 156.163 530.225 156.663 530.525C157.163 530.825 157.704 530.975 158.288 530.975ZM170.529 522.425L170.779 524.7L170.679 524.4C171.046 523.667 171.587 523.083 172.304 522.65C173.037 522.2 173.904 521.975 174.904 521.975C175.904 521.975 176.729 522.267 177.379 522.85C178.029 523.433 178.362 524.2 178.379 525.15V533H175.579V526.15C175.562 525.617 175.412 525.192 175.129 524.875C174.846 524.542 174.396 524.367 173.779 524.35C173.212 524.35 172.704 524.525 172.254 524.875C171.804 525.208 171.446 525.675 171.179 526.275C170.929 526.858 170.804 527.533 170.804 528.3V533H168.004V522.425H170.529ZM205.295 531.325C205.062 531.558 204.712 531.783 204.245 532C203.795 532.217 203.287 532.417 202.72 532.6C202.154 532.783 201.57 532.925 200.97 533.025C200.37 533.142 199.804 533.2 199.27 533.2C197.804 533.2 196.479 532.975 195.295 532.525C194.129 532.075 193.12 531.458 192.27 530.675C191.437 529.875 190.795 528.933 190.345 527.85C189.912 526.767 189.695 525.592 189.695 524.325C189.695 522.742 189.945 521.35 190.445 520.15C190.945 518.933 191.629 517.917 192.495 517.1C193.362 516.267 194.354 515.642 195.47 515.225C196.604 514.808 197.795 514.6 199.045 514.6C200.145 514.6 201.162 514.725 202.095 514.975C203.045 515.225 203.854 515.542 204.52 515.925L203.57 518.625C203.254 518.442 202.845 518.267 202.345 518.1C201.845 517.917 201.337 517.775 200.82 517.675C200.32 517.575 199.854 517.525 199.42 517.525C198.37 517.525 197.429 517.675 196.595 517.975C195.779 518.258 195.079 518.683 194.495 519.25C193.912 519.817 193.462 520.508 193.145 521.325C192.845 522.125 192.695 523.042 192.695 524.075C192.695 525.008 192.854 525.858 193.17 526.625C193.504 527.392 193.962 528.05 194.545 528.6C195.145 529.15 195.845 529.575 196.645 529.875C197.462 530.158 198.362 530.3 199.345 530.3C199.912 530.3 200.462 530.25 200.995 530.15C201.529 530.05 201.979 529.892 202.345 529.675V526.65H198.945V523.85H205.295V531.325ZM213.592 533.275C212.592 533.275 211.683 533.067 210.867 532.65C210.067 532.233 209.433 531.617 208.967 530.8C208.5 529.967 208.267 528.942 208.267 527.725C208.267 526.525 208.508 525.5 208.992 524.65C209.492 523.783 210.142 523.117 210.942 522.65C211.758 522.183 212.642 521.95 213.592 521.95C214.608 521.95 215.425 522.15 216.042 522.55C216.675 522.95 217.167 523.425 217.517 523.975L217.367 524.375L217.642 522.425H220.217V533H217.417V530.425L217.692 531.1C217.625 531.2 217.492 531.367 217.292 531.6C217.092 531.817 216.817 532.058 216.467 532.325C216.117 532.592 215.7 532.817 215.217 533C214.75 533.183 214.208 533.275 213.592 533.275ZM214.367 530.975C214.867 530.975 215.317 530.883 215.717 530.7C216.133 530.517 216.483 530.258 216.767 529.925C217.067 529.592 217.283 529.192 217.417 528.725V526.425C217.283 525.992 217.067 525.617 216.767 525.3C216.467 524.967 216.1 524.708 215.667 524.525C215.25 524.342 214.783 524.25 214.267 524.25C213.7 524.25 213.175 524.392 212.692 524.675C212.208 524.958 211.817 525.35 211.517 525.85C211.233 526.35 211.092 526.925 211.092 527.575C211.092 528.208 211.242 528.783 211.542 529.3C211.842 529.817 212.242 530.225 212.742 530.525C213.242 530.825 213.783 530.975 214.367 530.975ZM224.083 522.425H226.883V533H224.083V522.425ZM223.958 518.65C223.958 518.217 224.125 517.858 224.458 517.575C224.808 517.292 225.183 517.15 225.583 517.15C225.983 517.15 226.342 517.292 226.658 517.575C226.992 517.858 227.158 518.217 227.158 518.65C227.158 519.083 226.992 519.442 226.658 519.725C226.342 519.992 225.983 520.125 225.583 520.125C225.183 520.125 224.808 519.983 224.458 519.7C224.125 519.417 223.958 519.067 223.958 518.65ZM235.049 533.275C234.049 533.275 233.157 533.042 232.374 532.575C231.59 532.108 230.974 531.442 230.524 530.575C230.074 529.708 229.849 528.7 229.849 527.55C229.849 526.367 230.09 525.358 230.574 524.525C231.057 523.692 231.715 523.058 232.549 522.625C233.399 522.175 234.349 521.95 235.399 521.95C236.165 521.95 236.899 522.1 237.599 522.4C238.299 522.683 238.857 523.1 239.274 523.65L239.224 524.6V513.5H241.999V533H239.199V530.625L239.474 531.3C238.94 531.867 238.299 532.342 237.549 532.725C236.815 533.092 235.982 533.275 235.049 533.275ZM235.949 530.9C236.499 530.9 236.982 530.808 237.399 530.625C237.832 530.442 238.199 530.183 238.499 529.85C238.815 529.5 239.049 529.092 239.199 528.625V526.375C239.065 525.942 238.84 525.558 238.524 525.225C238.224 524.892 237.849 524.633 237.399 524.45C236.949 524.267 236.465 524.175 235.949 524.175C235.349 524.175 234.799 524.317 234.299 524.6C233.815 524.883 233.424 525.275 233.124 525.775C232.824 526.275 232.674 526.85 232.674 527.5C232.674 528.133 232.824 528.708 233.124 529.225C233.424 529.742 233.824 530.15 234.324 530.45C234.824 530.75 235.365 530.9 235.949 530.9ZM250.911 533.275C249.661 533.275 248.594 533.033 247.711 532.55C246.827 532.067 246.152 531.4 245.686 530.55C245.219 529.683 244.986 528.708 244.986 527.625C244.986 526.558 245.252 525.6 245.786 524.75C246.319 523.9 247.036 523.225 247.936 522.725C248.852 522.208 249.861 521.95 250.961 521.95C252.411 521.95 253.602 522.375 254.536 523.225C255.486 524.058 256.119 525.242 256.436 526.775L247.911 529.65L247.261 528.075L253.911 525.7L253.336 526.025C253.152 525.525 252.852 525.092 252.436 524.725C252.036 524.358 251.469 524.175 250.736 524.175C250.152 524.175 249.636 524.317 249.186 524.6C248.736 524.867 248.377 525.25 248.111 525.75C247.861 526.233 247.736 526.808 247.736 527.475C247.736 528.158 247.877 528.758 248.161 529.275C248.444 529.792 248.827 530.192 249.311 530.475C249.794 530.742 250.344 530.875 250.961 530.875C251.394 530.875 251.811 530.8 252.211 530.65C252.611 530.5 252.986 530.3 253.336 530.05L254.611 532.125C254.061 532.475 253.452 532.758 252.786 532.975C252.136 533.175 251.511 533.275 250.911 533.275Z" fill="white"/>
<path d="M-41.1206 260.6C241.03 251.695 224.289 50.5159 180.649 -48.9604L8.47989 -69.4426L-41.1206 260.6Z" stroke="#FC8846" stroke-width="3"/>
<path d="M-188.821 96.7999C83.2021 340.632 247.333 137.387 295.396 5.28578L152.569 -167.756L-188.821 96.7999Z" stroke="#BBAEA7" stroke-width="3"/>
<path d="M252 82L246 98L230 104L246 110L252 126L258 110L274 104L258 98L252 82Z" fill="white"/>
<path d="M42.5 236.458L38.125 248.125L26.4583 252.5L38.125 256.875L42.5 268.542L46.875 256.875L58.5417 252.5L46.875 248.125L42.5 236.458Z" fill="white"/>
<path d="M302.5 288.208L298.875 297.875L289.208 301.5L298.875 305.125L302.5 314.792L306.125 305.125L315.792 301.5L306.125 297.875L302.5 288.208Z" fill="white"/>
</g>
<rect x="1" y="1" width="383" height="711" rx="30" stroke="#003C7A"/>
<defs>
<filter id="filter0_dd_6_21" x="29" y="560" width="196" height="63" filterUnits="userSpaceOnUse" color-interpolation-filters="sRGB">
<feFlood flood-opacity="0" result="BackgroundImageFix"/>
<feColorMatrix in="SourceAlpha" type="matrix" values="0 0 0 0 0 0 0 0 0 0 0 0 0 0 0 0 0 0 127 0" result="hardAlpha"/>
<feOffset dx="-2" dy="-2"/>
<feGaussianBlur stdDeviation="2"/>
<feComposite in2="hardAlpha" operator="out"/>
<feColorMatrix type="matrix" values="0 0 0 0 1 0 0 0 0 1 0 0 0 0 1 0 0 0 0.1 0"/>
<feBlend mode="normal" in2="BackgroundImageFix" result="effect1_dropShadow_6_21"/>
<feColorMatrix in="SourceAlpha" type="matrix" values="0 0 0 0 0 0 0 0 0 0 0 0 0 0 0 0 0 0 127 0" result="hardAlpha"/>
<feOffset dx="2" dy="2"/>
<feGaussianBlur stdDeviation="2.5"/>
<feComposite in2="hardAlpha" operator="out"/>
<feColorMatrix type="matrix" values="0 0 0 0 1 0 0 0 0 1 0 0 0 0 1 0 0 0 0.25 0"/>
<feBlend mode="normal" in2="effect1_dropShadow_6_21" result="effect2_dropShadow_6_21"/>
<feBlend mode="normal" in="SourceGraphic" in2="effect2_dropShadow_6_21" result="shape"/>
</filter>
<linearGradient id="paint0_linear_6_21" x1="35" y1="566" x2="290.24" y2="615.333" gradientUnits="userSpaceOnUse">
<stop stop-color="#F45900"/>
<stop offset="0.994792" stop-color="#F0C2A7"/>
</linearGradient>
<clipPath id="clip0_6_21">
<rect x="1" y="1" width="383" height="711" rx="30" fill="white"/>
</clipPath>
</defs>
</svg>
