<svg width="38" height="38" viewBox="0 0 38 38" fill="none" xmlns="http://www.w3.org/2000/svg">
<g filter="url(#filter0_d_70_315)">
<path d="M30.6667 0H7.33333C5.5 0 4 1.5 4 3.33333V26.6667C4 28.5 5.5 30 7.33333 30H30.6667C32.5 30 34 28.5 34 26.6667V3.33333C34 1.5 32.5 0 30.6667 0ZM30.6667 26.6667H7.33333V3.33333H30.6667V26.6667ZM9.33333 7.83333H17.6667V10.3333H9.33333V7.83333ZM20.6667 21.3333H29V23.8333H20.6667V21.3333ZM20.6667 17H29V19.5H20.6667V17ZM12.3333 25H14.8333V21.6667H18.1667V19.1667H14.8333V15.8333H12.3333V19.1667H9V21.6667H12.3333V25ZM22.5 13.1667L24.8333 10.8333L27.1667 13.1667L29 11.5L26.6667 9.16667L29 6.83333L27.1667 5L24.8333 7.33333L22.5 5L20.6667 6.83333L23 9.16667L20.6667 11.5L22.5 13.1667Z" fill="#B1CA64"/>
</g>
<defs>
<filter id="filter0_d_70_315" x="0" y="0" width="38" height="38" filterUnits="userSpaceOnUse" color-interpolation-filters="sRGB">
<feFlood flood-opacity="0" result="BackgroundImageFix"/>
<feColorMatrix in="SourceAlpha" type="matrix" values="0 0 0 0 0 0 0 0 0 0 0 0 0 0 0 0 0 0 127 0" result="hardAlpha"/>
<feOffset dy="4"/>
<feGaussianBlur stdDeviation="2"/>
<feComposite in2="hardAlpha" operator="out"/>
<feColorMatrix type="matrix" values="0 0 0 0 0 0 0 0 0 0 0 0 0 0 0 0 0 0 0.25 0"/>
<feBlend mode="normal" in2="BackgroundImageFix" result="effect1_dropShadow_70_315"/>
<feBlend mode="normal" in="SourceGraphic" in2="effect1_dropShadow_70_315" result="shape"/>
</filter>
</defs>
</svg>
