<svg width="40" height="40" viewBox="0 0 40 40" fill="none" xmlns="http://www.w3.org/2000/svg">
<path d="M35.5556 0H4.44444C2 0 0 2 0 4.44444V35.5556C0 38 2 40 4.44444 40H35.5556C38 40 40 38 40 35.5556V4.44444C40 2 38 0 35.5556 0ZM35.5556 35.5556H4.44444V4.44444H35.5556V35.5556ZM7.11111 10.4444H18.2222V13.7778H7.11111V10.4444ZM22.2222 28.4444H33.3333V31.7778H22.2222V28.4444ZM22.2222 22.6667H33.3333V26H22.2222V22.6667ZM11.1111 33.3333H14.4444V28.8889H18.8889V25.5556H14.4444V21.1111H11.1111V25.5556H6.66667V28.8889H11.1111V33.3333ZM24.6667 17.5556L27.7778 14.4444L30.8889 17.5556L33.3333 15.3333L30.2222 12.2222L33.3333 9.11111L30.8889 6.66667L27.7778 9.77778L24.6667 6.66667L22.2222 9.11111L25.3333 12.2222L22.2222 15.3333L24.6667 17.5556Z" fill="#0E83DE"/>
</svg>
