<svg width="32" height="32" viewBox="0 0 32 32" fill="none" xmlns="http://www.w3.org/2000/svg">
<path d="M18.7441 17.3828C18.7441 16.8778 18.9448 16.3934 19.3019 16.0363C19.659 15.6791 20.1434 15.4785 20.6484 15.4785C21.1535 15.4785 21.6379 15.6791 21.995 16.0363C22.3521 16.3934 22.5527 16.8778 22.5527 17.3828C22.5527 17.8879 22.3521 18.3722 21.995 18.7294C21.6379 19.0865 21.1535 19.2871 20.6484 19.2871C20.1434 19.2871 19.659 19.0865 19.3019 18.7294C18.9448 18.3722 18.7441 17.8879 18.7441 17.3828ZM31.3125 15.8594V31.0938H0.84375V15.8594C0.84375 7.48047 7.69922 0.625 16.0781 0.625C24.457 0.625 31.3125 7.48047 31.3125 15.8594ZM3.89062 15.8594C3.89062 22.5777 9.35977 28.0469 16.0781 28.0469C22.7965 28.0469 28.2656 22.5777 28.2656 15.8594C28.2656 14.6559 28.0828 13.498 27.7629 12.4164C24.8177 13.1006 21.7354 12.8906 18.9102 11.8131C16.0851 10.7357 13.6456 8.83996 11.9039 6.36836C10.4109 10.0094 7.56211 12.9496 3.9668 14.5492C3.89063 14.9758 3.89062 15.4176 3.89062 15.8594ZM11.5078 19.2871C12.0129 19.2871 12.4972 19.0865 12.8544 18.7294C13.2115 18.3722 13.4121 17.8879 13.4121 17.3828C13.4121 16.8778 13.2115 16.3934 12.8544 16.0363C12.4972 15.6791 12.0129 15.4785 11.5078 15.4785C11.0028 15.4785 10.5184 15.6791 10.1613 16.0363C9.80415 16.3934 9.60352 16.8778 9.60352 17.3828C9.60352 17.8879 9.80415 18.3722 10.1613 18.7294C10.5184 19.0865 11.0028 19.2871 11.5078 19.2871Z" fill="white"/>
</svg>
