<svg width="25" height="25" viewBox="0 0 25 25" fill="none" xmlns="http://www.w3.org/2000/svg">
<path d="M8.36933 9.21053L11.5909 6.57895H18.1818V9.21053H12.3364L9.09092 11.8421H1.13638V9.21053H8.36933ZM9.41024 15.8684L12.7341 14.4671L13.5114 16.9408L10.1875 18.3408C10.344 19.7852 10.0354 21.2457 9.32085 22.4433C8.60625 23.641 7.53566 24.4919 6.31357 24.8335C5.09149 25.175 3.80355 24.9834 2.69577 24.2951C1.58799 23.6068 0.738011 22.4701 0.308173 21.1022C-0.121664 19.7342 -0.101229 18.2308 0.365574 16.8792C0.832378 15.5276 1.71283 14.4224 2.83877 13.7748C3.96471 13.1273 5.25721 12.9826 6.46941 13.3686C7.68161 13.7545 8.72854 14.644 9.41024 15.8671V15.8684ZM5.11365 22.3684C5.8671 22.3684 6.5897 22.0219 7.12247 21.405C7.65524 20.7881 7.95455 19.9514 7.95455 19.0789C7.95455 18.2065 7.65524 17.3698 7.12247 16.7529C6.5897 16.136 5.8671 15.7895 5.11365 15.7895C4.36019 15.7895 3.63759 16.136 3.10482 16.7529C2.57205 17.3698 2.27274 18.2065 2.27274 19.0789C2.27274 19.9514 2.57205 20.7881 3.10482 21.405C3.63759 22.0219 4.36019 22.3684 5.11365 22.3684ZM19.8864 25C19.2148 25 18.5499 24.8468 17.9295 24.5493C17.309 24.2517 16.7453 23.8156 16.2705 23.2658C15.7956 22.7159 15.419 22.0632 15.162 21.3448C14.905 20.6265 14.7727 19.8565 14.7727 19.0789C14.7727 18.3014 14.905 17.5314 15.162 16.8131C15.419 16.0947 15.7956 15.442 16.2705 14.8921C16.7453 14.3423 17.309 13.9062 17.9295 13.6086C18.5499 13.311 19.2148 13.1579 19.8864 13.1579C21.2426 13.1579 22.5433 13.7817 23.5023 14.8921C24.4612 16.0025 25 17.5086 25 19.0789C25 20.6493 24.4612 22.1553 23.5023 23.2658C22.5433 24.3762 21.2426 25 19.8864 25ZM19.8864 22.3684C20.6398 22.3684 21.3624 22.0219 21.8952 21.405C22.428 20.7881 22.7273 19.9514 22.7273 19.0789C22.7273 18.2065 22.428 17.3698 21.8952 16.7529C21.3624 16.136 20.6398 15.7895 19.8864 15.7895C19.1329 15.7895 18.4103 16.136 17.8775 16.7529C17.3448 17.3698 17.0455 18.2065 17.0455 19.0789C17.0455 19.9514 17.3448 20.7881 17.8775 21.405C18.4103 22.0219 19.1329 22.3684 19.8864 22.3684ZM3.4091 10.5263H10.2273L13.1818 8.24605L13.5 6.86974L15.6955 7.55132L13.5114 16.9342L11.4409 15.7658L11.575 15.1868L9.09092 17.1053L7.95455 14.4737H3.4091V10.5263ZM17.15 3.94737H21.5909V7.89474H18.3909L20.5727 14.8368L18.4364 15.7368L15.9727 7.89474H15.9091V7.69474L14.3182 2.63158H11.3636V0H15.9091L17.15 3.94737Z" fill="#F2765E"/>
</svg>
