<svg width="25" height="25" viewBox="0 0 25 25" fill="none" xmlns="http://www.w3.org/2000/svg">
<path d="M18.1818 7.5H20.4545V5H18.1818V7.5ZM19.3182 25C17.7462 25 16.4064 24.3908 15.2989 23.1725C14.1905 21.9533 13.6364 20.4792 13.6364 18.75C13.6364 17.0208 14.1905 15.5467 15.2989 14.3275C16.4064 13.1092 17.7462 12.5 19.3182 12.5C20.8902 12.5 22.2303 13.1092 23.3386 14.3275C24.4462 15.5467 25 17.0208 25 18.75C25 20.4792 24.4462 21.9533 23.3386 23.1725C22.2303 24.3908 20.8902 25 19.3182 25ZM18.75 22.5H19.8864V19.375H22.7273V18.125H19.8864V15H18.75V18.125H15.9091V19.375H18.75V22.5ZM25 12.6562C24.2614 11.7812 23.3996 11.1196 22.4148 10.6712C21.4299 10.2237 20.3977 10 19.3182 10C19.1098 10 18.9159 10.005 18.7364 10.015C18.5561 10.0258 18.3712 10.0521 18.1818 10.0938V8.75L10.2273 2.4375V0H25V12.6562ZM0 22.5V10L7.95455 3.75L15.9091 10V10.8438C14.5455 11.5521 13.447 12.63 12.6136 14.0775C11.7803 15.5258 11.3636 17.0833 11.3636 18.75C11.3636 19.3958 11.4254 20.0367 11.5489 20.6725C11.6716 21.3075 11.8655 21.9167 12.1307 22.5H10.2273V15H5.68182V22.5H0Z" fill="#E3B747"/>
</svg>
