<svg width="25" height="23" viewBox="0 0 25 23" fill="none" xmlns="http://www.w3.org/2000/svg">
<path d="M15.0298 9.79601H13.7786V8.54477C13.7786 8.21292 13.6468 7.89467 13.4121 7.66001C13.1775 7.42536 12.8592 7.29354 12.5274 7.29354C12.1955 7.29354 11.8772 7.42536 11.6426 7.66001C11.4079 7.89467 11.2761 8.21292 11.2761 8.54477V9.79601H10.0249C9.69304 9.79601 9.37478 9.92783 9.14013 10.1625C8.90548 10.3971 8.77365 10.7154 8.77365 11.0472C8.77365 11.3791 8.90548 11.6973 9.14013 11.932C9.37478 12.1666 9.69304 12.2985 10.0249 12.2985H11.2761V13.5497C11.2761 13.8816 11.4079 14.1998 11.6426 14.4345C11.8772 14.6691 12.1955 14.8009 12.5274 14.8009C12.8592 14.8009 13.1775 14.6691 13.4121 14.4345C13.6468 14.1998 13.7786 13.8816 13.7786 13.5497V12.2985H15.0298C15.3617 12.2985 15.6799 12.1666 15.9146 11.932C16.1492 11.6973 16.2811 11.3791 16.2811 11.0472C16.2811 10.7154 16.1492 10.3971 15.9146 10.1625C15.6799 9.92783 15.3617 9.79601 15.0298 9.79601ZM22.7374 2.2886C21.4032 0.968175 19.641 0.168094 17.7688 0.0327242C15.8966 -0.102645 14.0376 0.435611 12.5274 1.55037C10.9354 0.366247 8.95382 -0.17069 6.98178 0.0476834C5.00975 0.266056 3.19369 1.22352 1.89933 2.72726C0.604973 4.231 -0.0715499 6.16933 0.00600018 8.1519C0.0835502 10.1345 0.909413 12.014 2.31728 13.4121L9.82469 20.982C10.5285 21.685 11.4826 22.0798 12.4773 22.0798C13.472 22.0798 14.4261 21.685 15.1299 20.982L22.6373 13.4121C23.3767 12.6897 23.9661 11.8283 24.3715 10.8774C24.7769 9.92646 24.9904 8.90482 24.9997 7.87114C25.009 6.83747 24.8139 5.81215 24.4257 4.8541C24.0374 3.89606 23.4637 3.02419 22.7374 2.2886ZM20.9732 11.6228L13.4658 19.1302C13.3495 19.2475 13.2111 19.3406 13.0586 19.4041C12.9061 19.4676 12.7426 19.5003 12.5774 19.5003C12.4122 19.5003 12.2487 19.4676 12.0962 19.4041C11.9437 19.3406 11.8053 19.2475 11.689 19.1302L4.18162 11.6228C3.20035 10.6197 2.65087 9.27232 2.65087 7.8691C2.65087 6.46589 3.20035 5.11846 4.18162 4.1154C5.18155 3.12816 6.53015 2.57459 7.93532 2.57459C9.34049 2.57459 10.6891 3.12816 11.689 4.1154C11.8053 4.23268 11.9437 4.32576 12.0962 4.38928C12.2487 4.45281 12.4122 4.48551 12.5774 4.48551C12.7426 4.48551 12.9061 4.45281 13.0586 4.38928C13.2111 4.32576 13.3495 4.23268 13.4658 4.1154C14.4657 3.12816 15.8143 2.57459 17.2195 2.57459C18.6247 2.57459 19.9733 3.12816 20.9732 4.1154C21.962 5.11957 22.5162 6.47233 22.5162 7.88162C22.5162 9.2909 21.962 10.6437 20.9732 11.6478V11.6228Z" fill="#8270F6"/>
</svg>
