<svg width="25" height="24" viewBox="0 0 25 24" fill="none" xmlns="http://www.w3.org/2000/svg">
<path d="M0 13.75V7.5C0 6.8125 0.245 6.22417 0.735 5.735C1.22417 5.245 1.8125 5 2.5 5H7.5V2.5C7.5 1.8125 7.745 1.22375 8.235 0.73375C8.72417 0.244583 9.3125 0 10 0H15C15.6875 0 16.2763 0.244583 16.7663 0.73375C17.2554 1.22375 17.5 1.8125 17.5 2.5V5H22.5C23.1875 5 23.7763 5.245 24.2663 5.735C24.7554 6.22417 25 6.8125 25 7.5V13.75H16.25V12.5C16.25 12.1458 16.1304 11.8487 15.8913 11.6087C15.6513 11.3696 15.3542 11.25 15 11.25H10C9.64583 11.25 9.34917 11.3696 9.11 11.6087C8.87 11.8487 8.75 12.1458 8.75 12.5V13.75H0ZM10 5H15V2.5H10V5ZM11.25 16.25V13.75H13.75V16.25H11.25ZM2.5 23.75C1.8125 23.75 1.22417 23.5054 0.735 23.0163C0.245 22.5263 0 21.9375 0 21.25V16.25H8.75V17.5C8.75 17.8542 8.87 18.1508 9.11 18.39C9.34917 18.63 9.64583 18.75 10 18.75H15C15.3542 18.75 15.6513 18.63 15.8913 18.39C16.1304 18.1508 16.25 17.8542 16.25 17.5V16.25H25V21.25C25 21.9375 24.7554 22.5263 24.2663 23.0163C23.7763 23.5054 23.1875 23.75 22.5 23.75H2.5Z" fill="#F2765E"/>
</svg>
