<svg width="25" height="25" viewBox="0 0 25 25" fill="none" xmlns="http://www.w3.org/2000/svg">
<path d="M10.4269 0C8.87596 0 7.78269 1.09808 7.78269 2.64423C7.78269 4.34615 9.12692 5.45288 10.4269 6.52019C10.8519 6.86923 11.2673 7.22019 11.6587 7.60192H4.80769C3.54231 7.60192 2.49135 8.42019 2.10288 9.55481C2.10288 9.55481 2.29904 11.4481 5.28846 11.4481C8.06731 11.4481 8.17019 10.0346 8.17308 9.97596C8.17952 9.85328 8.23316 9.73783 8.32276 9.65379C8.41236 9.56974 8.531 9.52359 8.65385 9.525C8.78006 9.52909 8.89998 9.58105 8.98927 9.67034C9.07856 9.75963 9.13053 9.87956 9.13461 10.0058C9.13846 10.0548 9.27404 11.4481 12.5 11.4481C15.726 11.4481 15.8606 10.0346 15.8654 9.97596C15.8759 9.84947 15.9349 9.73194 16.0301 9.64791C16.1252 9.56389 16.2491 9.51985 16.376 9.525C16.4991 9.53025 16.6152 9.58352 16.6995 9.67339C16.7838 9.76326 16.8295 9.88258 16.8269 10.0058C16.8288 10.0567 16.9135 11.4481 19.7115 11.4481C22.7913 11.4481 22.8971 9.55481 22.8971 9.55481C22.5087 8.42115 21.4558 7.60192 20.1923 7.60192H13.3413C13.7361 7.22371 14.1471 6.86279 14.5731 6.52019C15.8721 5.45288 17.2173 4.34519 17.2173 2.64423C17.2173 1.09808 16.125 0 14.5731 0C13.6788 0 12.9221 0.640385 12.5 1.08173C12.0798 0.639423 11.3202 0 10.4269 0ZM8.68269 11.1779C8.21346 11.7894 7.25192 12.4096 5.28846 12.4096C3.36058 12.4096 2.40288 11.8087 1.92308 11.2077V15.2942H23.0769V11.2077C22.5971 11.8038 21.6365 12.4096 19.7115 12.4096C17.7404 12.4096 16.7846 11.7875 16.3163 11.1779C15.7837 11.7865 14.6971 12.4096 12.5 12.4096C10.2952 12.4096 9.21346 11.7894 8.68365 11.1779H8.68269ZM2.88462 16.2558C1.61923 16.2558 0.568269 17.074 0.179808 18.2087C0.180769 18.2087 0.375962 20.1019 3.36538 20.1019C6.14423 20.1019 7.20865 18.6885 7.21154 18.6298C7.21798 18.5071 7.27162 18.3917 7.36122 18.3076C7.45083 18.2236 7.56946 18.1774 7.69231 18.1788C7.81852 18.1829 7.93844 18.2349 8.02773 18.3242C8.11703 18.4135 8.16899 18.5334 8.17308 18.6596C8.17692 18.7087 9.27404 20.1019 12.5 20.1019C15.726 20.1019 16.8221 18.6885 16.8269 18.6298C16.8375 18.5033 16.8965 18.3858 16.9916 18.3018C17.0868 18.2177 17.2107 18.1737 17.3375 18.1788C17.4606 18.1841 17.5768 18.2374 17.6611 18.3272C17.7453 18.4171 17.7911 18.5364 17.7885 18.6596C17.7904 18.7106 18.8365 20.1019 21.6346 20.1019C24.7144 20.1019 24.8202 18.2087 24.8202 18.2087C24.4317 17.075 23.3788 16.2558 22.1154 16.2558H2.88462ZM7.72212 19.8317C7.25192 20.4433 5.32885 21.0635 3.36538 21.0635C1.4375 21.0635 0.479808 20.4625 0 19.8615V22.9865C0 24.5788 1.29231 24.9096 2.88462 24.9096H22.1154C23.7077 24.9096 25 24.5788 25 22.9865V19.8615C24.5202 20.4577 23.5596 21.0635 21.6346 21.0635C19.6635 21.0635 17.7462 20.4413 17.2779 19.8317C16.7452 20.4404 14.6971 21.0635 12.5 21.0635C10.2952 21.0635 8.25192 20.4433 7.72212 19.8317Z" fill="#B1CA64"/>
</svg>
