<svg width="25" height="25" viewBox="0 0 25 25" fill="none" xmlns="http://www.w3.org/2000/svg">
<path d="M5.36052 7.14308C7.68155 7.14308 9.66335 6.14309 10.4132 4.76216H19.6438V5.95262C19.6438 6.60737 20.4472 7.14308 21.4292 7.14308C22.4112 7.14308 23.2146 6.60737 23.2146 5.95262V4.76216C24.1966 4.76216 25 4.22645 25 3.5717C25 2.91694 24.1966 2.38123 23.2146 2.38123H10.4132C9.98127 1.56881 9.12377 0.887753 7.99855 0.463401C6.87332 0.0390491 5.55608 -0.100037 4.28928 0.0717399C2.20035 0.345546 0.504212 1.48839 0.0935683 2.88123C-0.531324 5.14311 2.05752 7.14308 5.36052 7.14308ZM5.36052 2.38123C6.34249 2.38123 7.14593 2.91694 7.14593 3.5717C7.14593 4.22645 6.34249 4.76216 5.36052 4.76216C4.37855 4.76216 3.57511 4.22645 3.57511 3.5717C3.57511 2.91694 4.37855 2.38123 5.36052 2.38123ZM20.3401 9.524H4.66421C3.89649 9.524 3.21803 9.85733 2.96807 10.3335L0.00429756 16.2977V23.8095C0.00429756 24.4643 0.807731 25 1.7897 25C2.77168 25 3.57511 24.4643 3.57511 23.8095V22.6191H21.4292V23.8095C21.4292 24.4643 22.2326 25 23.2146 25C24.1966 25 25 24.4643 25 23.8095V16.2977L22.0362 10.3335C21.7863 9.85733 21.1078 9.524 20.3401 9.524ZM7.14593 19.6429C6.16395 19.6429 5.36052 19.1072 5.36052 18.4525C5.36052 17.7977 6.16395 17.262 7.14593 17.262C8.1279 17.262 8.93133 17.7977 8.93133 18.4525C8.93133 19.1072 8.1279 19.6429 7.14593 19.6429ZM17.8584 19.6429C16.8764 19.6429 16.073 19.1072 16.073 18.4525C16.073 17.7977 16.8764 17.262 17.8584 17.262C18.8403 17.262 19.6438 17.7977 19.6438 18.4525C19.6438 19.1072 18.8403 19.6429 17.8584 19.6429ZM4.77134 14.2858L5.9497 11.9049H19.0546L20.233 14.2858H4.77134Z" fill="#B1CA64"/>
</svg>
