<svg width="25" height="25" viewBox="0 0 25 25" fill="none" xmlns="http://www.w3.org/2000/svg">
<path d="M20.3125 23.4375H18.75V21.0938C18.7488 20.0581 18.3368 19.0653 17.6045 18.333C16.8722 17.6007 15.8794 17.1887 14.8438 17.1875H10.1562C9.12063 17.1887 8.12778 17.6007 7.39548 18.333C6.66319 19.0653 6.25124 20.0581 6.25 21.0938V23.4375H4.6875V21.0938C4.68915 19.6439 5.26586 18.2538 6.29109 17.2286C7.31632 16.2034 8.70636 15.6267 10.1562 15.625H14.8438C16.2936 15.6267 17.6837 16.2034 18.7089 17.2286C19.7341 18.2538 20.3108 19.6439 20.3125 21.0938V23.4375ZM3.90625 4.6875C3.69905 4.6875 3.50034 4.76981 3.35382 4.91632C3.20731 5.06284 3.125 5.26155 3.125 5.46875V12.5H4.6875V5.46875C4.6875 5.26155 4.60519 5.06284 4.45868 4.91632C4.31216 4.76981 4.11345 4.6875 3.90625 4.6875Z" fill="#8270F6"/>
<path d="M3.125 1.5625V3.125H7.03125V8.59375C7.03125 10.0442 7.60742 11.4352 8.63301 12.4607C9.6586 13.4863 11.0496 14.0625 12.5 14.0625C13.9504 14.0625 15.3414 13.4863 16.367 12.4607C17.3926 11.4352 17.9688 10.0442 17.9688 8.59375V3.125H21.875V1.5625H3.125ZM8.59375 3.125H16.4062V5.46875H8.59375V3.125ZM12.5 12.5C11.464 12.5 10.4704 12.0884 9.73786 11.3559C9.0053 10.6233 8.59375 9.62975 8.59375 8.59375V7.03125H16.4062V8.59375C16.4062 9.62975 15.9947 10.6233 15.2621 11.3559C14.5296 12.0884 13.536 12.5 12.5 12.5Z" fill="#8270F6"/>
</svg>
