<svg width="32" height="31" viewBox="0 0 32 31" fill="none" xmlns="http://www.w3.org/2000/svg">
<path d="M11.5078 15.0879C11.0028 15.0879 10.5184 15.2885 10.1613 15.6456C9.80415 16.0028 9.60352 16.4871 9.60352 16.9922C9.60352 17.4972 9.80415 17.9816 10.1613 18.3387C10.5184 18.6959 11.0028 18.8965 11.5078 18.8965C11.7579 18.8965 12.0055 18.8472 12.2366 18.7515C12.4676 18.6558 12.6775 18.5156 12.8544 18.3387C13.0312 18.1619 13.1715 17.952 13.2672 17.7209C13.3629 17.4899 13.4121 17.2423 13.4121 16.9922C13.4121 16.7421 13.3629 16.4945 13.2672 16.2634C13.1715 16.0324 13.0312 15.8225 12.8544 15.6456C12.6775 15.4688 12.4676 15.3285 12.2366 15.2328C12.0055 15.1371 11.7579 15.0879 11.5078 15.0879ZM20.6484 15.0879C20.1434 15.0879 19.659 15.2885 19.3019 15.6456C18.9448 16.0028 18.7441 16.4871 18.7441 16.9922C18.7441 17.4972 18.9448 17.9816 19.3019 18.3387C19.659 18.6959 20.1434 18.8965 20.6484 18.8965C21.1535 18.8965 21.6379 18.6959 21.995 18.3387C22.3521 17.9816 22.5527 17.4972 22.5527 16.9922C22.5527 16.4871 22.3521 16.0028 21.995 15.6456C21.6379 15.2885 21.1535 15.0879 20.6484 15.0879ZM16.0781 0.234375C14.0775 0.234375 12.0965 0.628424 10.2482 1.39402C8.39986 2.15962 6.72044 3.28178 5.3058 4.69642C2.4488 7.55342 0.84375 11.4283 0.84375 15.4688C0.84375 19.5092 2.4488 23.3841 5.3058 26.2411C6.72044 27.6557 8.39986 28.7779 10.2482 29.5435C12.0965 30.3091 14.0775 30.7031 16.0781 30.7031C20.1185 30.7031 23.9935 29.0981 26.8505 26.2411C29.7075 23.3841 31.3125 19.5092 31.3125 15.4688C31.3125 13.4681 30.9185 11.4871 30.1529 9.63881C29.3873 7.79049 28.2651 6.11106 26.8505 4.69642C25.4358 3.28178 23.7564 2.15962 21.9081 1.39402C20.0597 0.628424 18.0787 0.234375 16.0781 0.234375ZM16.0781 27.6562C9.35977 27.6562 3.89062 22.1871 3.89062 15.4688C3.89062 15.027 3.89063 14.5852 3.9668 14.1586C7.56211 12.559 10.4109 9.61875 11.9039 5.97773C13.6456 8.44933 16.0851 10.3451 18.9102 11.4225C21.7354 12.4999 24.8177 12.71 27.7629 12.0258C28.0828 13.1074 28.2656 14.2652 28.2656 15.4688C28.2656 22.1871 22.7965 27.6562 16.0781 27.6562Z" fill="white"/>
</svg>
