<svg width="40" height="40" viewBox="0 0 40 40" fill="none" xmlns="http://www.w3.org/2000/svg">
<path d="M9.99996 23.3337C9.08329 23.3337 8.29885 23.007 7.64663 22.3537C6.99329 21.7014 6.66663 20.917 6.66663 20.0003C6.66663 19.0837 6.99329 18.2987 7.64663 17.6453C8.29885 16.9931 9.08329 16.667 9.99996 16.667C10.9166 16.667 11.7011 16.9931 12.3533 17.6453C13.0066 18.2987 13.3333 19.0837 13.3333 20.0003C13.3333 20.917 13.0066 21.7014 12.3533 22.3537C11.7011 23.007 10.9166 23.3337 9.99996 23.3337ZM20 23.3337C19.0833 23.3337 18.2988 23.007 17.6466 22.3537C16.9933 21.7014 16.6666 20.917 16.6666 20.0003C16.6666 19.0837 16.9933 18.2987 17.6466 17.6453C18.2988 16.9931 19.0833 16.667 20 16.667C20.9166 16.667 21.7016 16.9931 22.355 17.6453C23.0072 18.2987 23.3333 19.0837 23.3333 20.0003C23.3333 20.917 23.0072 21.7014 22.355 22.3537C21.7016 23.007 20.9166 23.3337 20 23.3337ZM30 23.3337C29.0833 23.3337 28.2983 23.007 27.645 22.3537C26.9927 21.7014 26.6666 20.917 26.6666 20.0003C26.6666 19.0837 26.9927 18.2987 27.645 17.6453C28.2983 16.9931 29.0833 16.667 30 16.667C30.9166 16.667 31.7016 16.9931 32.355 17.6453C33.0072 18.2987 33.3333 19.0837 33.3333 20.0003C33.3333 20.917 33.0072 21.7014 32.355 22.3537C31.7016 23.007 30.9166 23.3337 30 23.3337Z" fill="#0E83DE"/>
</svg>
