<svg width="25" height="32" viewBox="0 0 25 32" fill="none" xmlns="http://www.w3.org/2000/svg">
<path d="M10.9375 23.4375H14.0625V14.0625H10.9375V23.4375ZM12.5 10.9375C12.9427 10.9375 13.3141 10.7875 13.6141 10.4875C13.913 10.1885 14.0625 9.81771 14.0625 9.375C14.0625 8.93229 13.913 8.56094 13.6141 8.26094C13.3141 7.96198 12.9427 7.8125 12.5 7.8125C12.0573 7.8125 11.6865 7.96198 11.3875 8.26094C11.0875 8.56094 10.9375 8.93229 10.9375 9.375C10.9375 9.81771 11.0875 10.1885 11.3875 10.4875C11.6865 10.7875 12.0573 10.9375 12.5 10.9375ZM12.5 31.25C8.88021 30.3385 5.89219 28.2615 3.53594 25.0187C1.17865 21.7771 0 18.1771 0 14.2188V4.6875L12.5 0L25 4.6875V14.2188C25 18.1771 23.8219 21.7771 21.4656 25.0187C19.1083 28.2615 16.1198 30.3385 12.5 31.25Z" fill="#F2765E"/>
</svg>
