<svg width="25" height="28" viewBox="0 0 25 28" fill="none" xmlns="http://www.w3.org/2000/svg">
<path d="M20.8333 27.7778C19.6759 27.7778 18.6921 27.3727 17.8819 26.5625C17.0718 25.7523 16.6667 24.7685 16.6667 23.6111C16.6667 23.4491 16.6782 23.281 16.7014 23.1069C16.7245 22.9338 16.7593 22.7778 16.8056 22.6389L7.01389 16.9444C6.62037 17.2917 6.18056 17.5634 5.69444 17.7597C5.20833 17.9569 4.69907 18.0556 4.16667 18.0556C3.00926 18.0556 2.02546 17.6505 1.21528 16.8403C0.405093 16.0301 0 15.0463 0 13.8889C0 12.7315 0.405093 11.7477 1.21528 10.9375C2.02546 10.1273 3.00926 9.72222 4.16667 9.72222C4.69907 9.72222 5.20833 9.82037 5.69444 10.0167C6.18056 10.2139 6.62037 10.4861 7.01389 10.8333L16.8056 5.13889C16.7593 5 16.7245 4.84398 16.7014 4.67083C16.6782 4.49676 16.6667 4.3287 16.6667 4.16667C16.6667 3.00926 17.0718 2.02546 17.8819 1.21528C18.6921 0.405093 19.6759 0 20.8333 0C21.9907 0 22.9745 0.405093 23.7847 1.21528C24.5949 2.02546 25 3.00926 25 4.16667C25 5.32407 24.5949 6.30787 23.7847 7.11806C22.9745 7.92824 21.9907 8.33333 20.8333 8.33333C20.3009 8.33333 19.7917 8.23472 19.3056 8.0375C18.8194 7.8412 18.3796 7.56944 17.9861 7.22222L8.19444 12.9167C8.24074 13.0556 8.27546 13.2116 8.29861 13.3847C8.32176 13.5588 8.33333 13.7269 8.33333 13.8889C8.33333 14.0509 8.32176 14.2185 8.29861 14.3917C8.27546 14.5657 8.24074 14.7222 8.19444 14.8611L17.9861 20.5556C18.3796 20.2083 18.8194 19.9361 19.3056 19.7389C19.7917 19.5426 20.3009 19.4444 20.8333 19.4444C21.9907 19.4444 22.9745 19.8495 23.7847 20.6597C24.5949 21.4699 25 22.4537 25 23.6111C25 24.7685 24.5949 25.7523 23.7847 26.5625C22.9745 27.3727 21.9907 27.7778 20.8333 27.7778Z" fill="#B1CA64"/>
</svg>
