<svg width="40" height="40" viewBox="0 0 40 40" fill="none" xmlns="http://www.w3.org/2000/svg">
<path d="M16.166 1.97015L15.575 1.59709C14.4184 0.883247 12.9747 0.46854 11.7336 0.857753C10.3996 1.27586 9.33583 2.31008 8.7786 3.86353L7.98498 3.45222C6.61725 2.74348 5.9013 2.73243 5.30778 3.00097C4.83414 3.21428 4.34023 3.72756 3.78048 4.47709L10.7373 9.89123C11.8264 10.2482 13.4221 10.2397 15.0178 9.82325C16.6219 9.40684 18.2176 8.59102 19.3827 7.49477L22.0084 0.95973C19.6951 -0.880108 17.5844 0.185553 16.166 1.97015ZM20.6492 8.47205C19.2139 9.93372 17.0779 10.9195 15.4146 11.3614C14.8321 11.5144 14.2495 11.6248 13.6839 11.6843C13.3715 12.2027 13.1097 12.7296 12.9071 13.2565C13.3124 15.33 14.0722 17.0296 15.212 18.4233L13.9962 19.4431C13.2955 18.5933 12.6707 17.6755 12.1979 16.6557C12.1219 18.6273 12.561 20.6668 13.2786 22.7913L11.7842 23.3012C10.4672 19.4261 10.0197 15.4575 11.8687 11.7183C11.2439 11.6673 10.6529 11.5484 10.1041 11.3529L10.0788 11.3444C9.71575 11.6928 9.3696 12.0583 9.04033 12.4407C6.37494 15.551 4.90674 19.6895 5.67504 22.9103C6.0862 24.6354 6.82326 26.2671 7.88367 27.6608C9.43714 27.6268 10.9062 27.6608 12.2401 28.1706C12.8734 28.1027 13.5234 28.0602 14.1989 28.0602C16.6051 28.0602 18.7833 28.5106 20.4296 29.2924C21.0713 29.5983 21.6538 29.9637 22.1182 30.3802C22.1182 29.9298 22.1857 29.4454 22.3208 29.0884C21.5694 28.3746 21.0966 27.5078 21.0966 26.522C21.0966 25.1538 22 24.0236 23.3086 23.2078C23.3086 22.8168 23.3846 22.4429 23.5197 22.086C22.667 21.3467 22.1182 20.4289 22.1182 19.3581C22.1182 18.6868 22.3377 18.0749 22.7092 17.5225C22.3377 16.9786 22.1182 16.3668 22.1182 15.6954C22.1182 15.364 22.1688 15.0581 22.2617 14.7606C21.4428 14.0298 20.9278 13.129 20.9278 12.0922C20.9278 11.064 21.4343 10.1717 22.2448 9.44933C21.7467 9.05842 21.2148 8.72699 20.6492 8.47205ZM30.0544 8.66751C27.8593 8.66751 25.8752 9.1349 24.5159 9.82325C23.1482 10.5116 22.5066 11.3614 22.5066 12.0922C22.5066 12.8316 23.1482 13.6814 24.5159 14.3697C25.8752 15.0581 27.8593 15.5255 30.0544 15.5255C31.0084 15.5255 31.9118 15.432 32.7477 15.279V13.8344C33.9212 13.6559 34.8921 13.333 35.5169 12.9166V14.4122C36.5722 14.1063 37.5854 12.976 37.6107 12.0922C37.6107 11.3614 36.969 10.5116 35.6013 9.82325C34.2336 9.1349 32.258 8.66751 30.0544 8.66751ZM38.2017 14.4207C37.9231 14.7182 37.5938 14.9986 37.2223 15.2535L37.2392 17.718C38.303 17.0806 38.8011 16.3413 38.8011 15.6954C38.8011 15.2875 38.6069 14.8456 38.2017 14.4207ZM23.697 15.7294C23.7223 16.4603 24.364 17.2846 25.7064 17.9644C27.0741 18.6613 29.0497 19.1202 31.2533 19.1202C32.6295 19.1202 33.9212 18.9332 35.0272 18.6273L35.0863 16.3158C33.6341 16.8257 31.9118 17.1061 30.0544 17.1061C27.6482 17.1061 25.4615 16.6217 23.8068 15.7889C23.7645 15.7719 23.7308 15.7464 23.697 15.7294ZM23.8658 18.6868C23.7477 18.9162 23.697 19.1457 23.697 19.3581C23.697 20.0975 24.3386 20.9473 25.7064 21.6356C27.0741 22.324 29.0497 22.7829 31.2533 22.7829C32.3677 22.7829 33.4231 22.6724 34.3771 22.4599V20.4204C33.3977 20.6073 32.3508 20.7008 31.2533 20.7008C28.8386 20.7008 26.652 20.2249 24.9972 19.3836C24.5835 19.1797 24.2036 18.9417 23.8658 18.6868ZM38.6323 18.6868C38.1173 19.0522 37.6698 19.3241 37.1463 19.5536V21.4487C38.2692 20.7943 38.8011 20.0295 38.8011 19.3581C38.8011 19.1457 38.7505 18.9162 38.6323 18.6868ZM39.2655 21.8141C39.0966 21.984 38.9109 22.1455 38.7083 22.307V25.0603C39.5779 24.4655 40 23.8111 40 23.2163C40 22.7659 39.7552 22.2815 39.2655 21.8141ZM24.9043 23.0038C24.8959 23.0803 24.8874 23.1483 24.8874 23.2163C24.8874 23.9556 25.5291 24.7969 26.8968 25.4852C28.2645 26.1821 30.2486 26.641 32.4437 26.641C33.7017 26.641 34.9006 26.488 35.939 26.2331V23.6921C34.5629 24.134 32.9672 24.372 31.2533 24.372C28.8386 24.372 26.652 23.8876 24.9972 23.0548C24.9634 23.0378 24.9381 23.0208 24.9043 23.0038ZM23.7561 24.8224C23.0216 25.3748 22.6754 25.9781 22.6754 26.522C22.6754 27.2613 23.3171 28.1027 24.6848 28.7995C26.0525 29.4879 28.0281 29.9467 30.2317 29.9467C31.0338 29.9467 31.8105 29.8873 32.5366 29.7768V28.2301H32.4437C30.0291 28.2301 27.8424 27.7457 26.1876 26.9044C25.1323 26.3775 24.2542 25.6722 23.7561 24.8224ZM37.4756 27.4228C36.8086 27.6608 36.0826 27.8562 35.3058 27.9837V29.012C35.4662 28.944 35.6266 28.876 35.7786 28.7995C36.606 28.3746 37.1632 27.8987 37.4756 27.4228ZM38.2523 28.9695C37.9315 29.2924 37.56 29.5813 37.1463 29.8448V32.2752C38.2692 31.6294 38.8011 30.8645 38.8011 30.1932C38.8011 29.8023 38.6238 29.3774 38.2523 28.9695ZM8.81238 29.2074C7.95121 29.2159 7.02251 29.3264 6.06003 29.5558C4.13423 30.0062 2.4786 30.8306 1.39793 31.7398C0.31725 32.6406 -0.104889 33.5584 0.021753 34.2128C0.148395 34.8671 0.815374 35.4705 2.11556 35.8189C3.41153 36.1589 5.22419 36.1759 7.14915 35.7255C7.92588 35.5385 8.65196 35.3006 9.31894 35.0201V33.261C10.5516 32.7086 11.4718 32.0458 11.8855 31.3999V33.4735C12.9071 32.5897 13.3039 31.7059 13.1857 31.06C13.0675 30.4056 12.3921 29.8023 11.0919 29.4624C10.4418 29.2924 9.6651 29.1989 8.81238 29.2074ZM14.2664 29.6493C14.4944 29.9807 14.6548 30.3547 14.7392 30.7711C14.8321 31.281 14.7899 31.7738 14.6379 32.2582C15.4737 32.4792 16.2336 32.7766 16.8921 33.1505C17.2636 33.3545 17.6098 33.6009 17.9137 33.8559C18.6735 33.6774 19.3152 33.4225 19.7711 33.1165V34.8671C21.1304 34.2213 21.7552 33.431 21.7552 32.8021C21.7552 32.1648 21.1304 31.3744 19.7627 30.7286C18.4034 30.0912 16.4446 29.6578 14.2664 29.6493ZM23.7054 30.0742C23.697 30.1082 23.697 30.1507 23.697 30.1932C23.697 30.9325 24.3386 31.7738 25.7064 32.4707C27.0741 33.159 29.0497 33.6179 31.2533 33.6179C32.3677 33.6179 33.4231 33.499 34.3771 33.295V31.009C33.1276 31.3489 31.7176 31.5359 30.2317 31.5359C27.8171 31.5359 25.6304 31.0515 23.9756 30.2187C23.8827 30.1677 23.7899 30.1167 23.7054 30.0742ZM23.9418 33.244C23.773 33.5244 23.697 33.7964 23.697 34.0598C23.697 34.7992 24.3386 35.6405 25.7064 36.3373C27.0741 37.0257 29.0497 37.4846 31.2533 37.4846C32.3677 37.4846 33.4231 37.3656 34.3771 37.1616V34.9181C33.3977 35.1051 32.3508 35.2071 31.2533 35.2071C28.8386 35.2071 26.652 34.7227 24.9972 33.8814C24.6173 33.6944 24.2627 33.482 23.9418 33.244ZM38.5563 33.244C38.0666 33.5754 37.636 33.8389 37.1463 34.0513V36.1419C38.2692 35.496 38.8011 34.7312 38.8011 34.0598C38.8011 33.7964 38.7251 33.5244 38.5563 33.244ZM13.8527 33.7029C13.5572 34.0768 13.2111 34.4337 12.8227 34.7567C11.5056 35.8699 9.64821 36.7707 7.50374 37.2721C6.73883 37.4506 5.97898 37.561 5.24952 37.6205C5.51969 38.0709 5.99502 38.5128 6.6907 38.9037C7.84146 39.5581 9.53001 40 11.4043 40C12.257 40 13.0675 39.9065 13.8105 39.7451V37.9775C14.9756 37.799 15.955 37.4761 16.5797 37.0597V38.6233C17.424 38.0284 17.8293 37.3571 17.8293 36.7197C17.8293 35.9804 17.2805 35.1901 16.1238 34.5357C15.4991 34.1873 14.7223 33.8984 13.8527 33.7029Z" fill="#0E83DE"/>
</svg>
